<?xml version="1.0" encoding="UTF-8"?>
<svg width="48px" height="48px" viewBox="0 0 48 48" version="1.1" xmlns="http://www.w3.org/2000/svg" xmlns:xlink="http://www.w3.org/1999/xlink">
    <!-- Generator: Sketch 52.6 (67491) - http://www.bohemiancoding.com/sketch -->
    <title>Icon</title>
    <desc>Created with Sketch.</desc>
    <defs>
        <path d="M18.99,13.2757143 C19.5485714,12.7171429 20.4514286,12.7171429 21.01,13.2757143 C21.5685714,13.8342857 21.5685714,14.7371429 21.01,15.2957143 L15.2957143,21.01 C15.0171429,21.2885714 14.6514286,21.4285714 14.2857143,21.4285714 C13.92,21.4285714 13.5542857,21.2885714 13.2757143,21.01 C12.7171429,20.4514286 12.7171429,19.5485714 13.2757143,18.99 L18.99,13.2757143 Z M17.5432857,24.8521429 C18.1061429,24.2907143 19.0161429,24.2907143 19.579,24.8521429 C20.1404286,25.4135714 20.1404286,26.3207143 19.579,26.8821429 L17.5432857,28.9107143 C13.9118571,32.5307143 7.82614286,32.2478571 4.58185714,28.0578571 C1.899,24.595 2.44328571,19.6178571 5.54614286,16.5235714 L7.36757143,14.705 C7.93042857,14.1464286 8.84185714,14.1464286 9.40328571,14.705 C9.96471429,15.2664286 9.96471429,16.175 9.40328571,16.735 L7.36757143,18.7635714 C5.00042857,21.125 5.13042857,25.0478571 7.75757143,27.2364286 C10.0832857,29.175 13.579,28.8064286 15.7232857,26.6678571 L17.5432857,24.8521429 Z M28.0887143,4.59957143 C32.2501429,7.85385714 32.523,13.9181429 28.9072857,17.5424286 L26.8744286,19.5781429 C26.313,20.141 25.4044286,20.141 24.843,19.5781429 C24.2815714,19.0167143 24.2815714,18.1038571 24.843,17.5424286 L26.8744286,15.5052857 C29.2387143,13.1381429 29.1101429,9.20242857 26.4858571,7.00528571 C24.1615714,5.05814286 20.673,5.42957143 18.5315714,7.57528571 L16.713,9.39671429 C16.153,9.95957143 15.2415714,9.95957143 14.6815714,9.39671429 C14.1201429,8.83528571 14.1144286,7.92814286 14.9344286,7.10671429 L16.4672857,5.571 C19.5844286,2.44671429 24.6144286,1.88242857 28.0887143,4.59957143 Z" id="path-1"></path>
    </defs>
    <g id="Interface" stroke="none" stroke-width="1" fill="none" fill-rule="evenodd">
        <g id="Desktop-v.-2.0-Copy" transform="translate(-267.000000, -1329.000000)">
            <g id="Features" transform="translate(267.000000, 1249.000000)">
                <g id="Rectangel-Icon" transform="translate(0.000000, 80.000000)">
                    <g>
                        <rect id="Background" fill="#3B3B3B" x="0" y="0" width="48" height="48" rx="8.57142857"></rect>
                        <g id="Icon/Fill/link-2" transform="translate(6.857143, 6.857143)">
                            <mask id="mask-2" fill="white">
                                <use xlink:href="#path-1"></use>
                            </mask>
                            <use id="Color" fill="#FFFFFF" fill-rule="evenodd" xlink:href="#path-1"></use>
                        </g>
                    </g>
                </g>
            </g>
        </g>
    </g>
</svg>