<?xml version="1.0" encoding="UTF-8"?>
<svg width="56px" height="56px" viewBox="0 0 56 56" version="1.1" xmlns="http://www.w3.org/2000/svg" xmlns:xlink="http://www.w3.org/1999/xlink">
    <!-- Generator: Sketch 52.6 (67491) - http://www.bohemiancoding.com/sketch -->
    <title>Icon</title>
    <desc>Created with Sketch.</desc>
    <defs>
        <linearGradient x1="95.0334056%" y1="50%" x2="4.3641915%" y2="50%" id="linearGradient-1">
            <stop stop-color="#267FFC" offset="0%"></stop>
            <stop stop-color="#0D62F8" offset="100%"></stop>
        </linearGradient>
        <path d="M6.66666667,10 C7.58666667,10 8.33333333,10.7466667 8.33333333,11.6666667 C8.33333333,12.5866667 7.58666667,13.3333333 6.66666667,13.3333333 C5.74666667,13.3333333 5,12.5866667 5,11.6666667 C5,10.7466667 5.74666667,10 6.66666667,10 Z M6.66666667,18.3333333 C7.58666667,18.3333333 8.33333333,19.08 8.33333333,20 C8.33333333,20.92 7.58666667,21.6666667 6.66666667,21.6666667 C5.74666667,21.6666667 5,20.92 5,20 C5,19.08 5.74666667,18.3333333 6.66666667,18.3333333 Z M6.66666667,26.6666667 C7.58666667,26.6666667 8.33333333,27.4133333 8.33333333,28.3333333 C8.33333333,29.2533333 7.58666667,30 6.66666667,30 C5.74666667,30 5,29.2533333 5,28.3333333 C5,27.4133333 5.74666667,26.6666667 6.66666667,26.6666667 Z M33.4408333,18.3333333 C34.2991667,18.3333333 35.0008333,19.035 35.0008333,19.8933333 L35.0008333,20.1066667 C35.0008333,20.965 34.2991667,21.6666667 33.4408333,21.6666667 L13.2258333,21.6666667 C12.3675,21.6666667 11.6675,20.965 11.6675,20.1066667 L11.6675,19.8933333 C11.6675,19.035 12.3675,18.3333333 13.2258333,18.3333333 L33.4408333,18.3333333 Z M33.4408333,26.6666667 C34.2991667,26.6666667 35.0008333,27.3683333 35.0008333,28.2266667 L35.0008333,28.44 C35.0008333,29.2983333 34.2991667,30 33.4408333,30 L13.2258333,30 C12.3675,30 11.6675,29.2983333 11.6675,28.44 L11.6675,28.2266667 C11.6675,27.3683333 12.3675,26.6666667 13.2258333,26.6666667 L33.4408333,26.6666667 Z M33.4408333,10 C34.2991667,10 35.0008333,10.7016667 35.0008333,11.56 L35.0008333,11.7733333 C35.0008333,12.6316667 34.2991667,13.3333333 33.4408333,13.3333333 L13.2258333,13.3333333 C12.3675,13.3333333 11.6675,12.6316667 11.6675,11.7733333 L11.6675,11.56 C11.6675,10.7016667 12.3675,10 13.2258333,10 L33.4408333,10 Z" id="path-2"></path>
    </defs>
    <g id="Interface" stroke="none" stroke-width="1" fill="none" fill-rule="evenodd">
        <g id="Desktop-v.-2.0-Copy" transform="translate(-802.000000, -2863.000000)">
            <g id="Section-C3" transform="translate(268.000000, 2705.000000)">
                <g id="Rectangel-Icon" transform="translate(534.000000, 158.000000)">
                    <g>
                        <rect id="Background" fill="url(#linearGradient-1)" x="0" y="0" width="56" height="56" rx="10"></rect>
                        <g id="Icon/Fill/list" transform="translate(8.000000, 8.000000)">
                            <mask id="mask-3" fill="white">
                                <use xlink:href="#path-2"></use>
                            </mask>
                            <use id="Color" fill="#FFFFFF" fill-rule="evenodd" xlink:href="#path-2"></use>
                        </g>
                    </g>
                </g>
            </g>
        </g>
    </g>
</svg>