<?xml version="1.0" encoding="UTF-8"?>
<svg width="48px" height="48px" viewBox="0 0 48 48" version="1.1" xmlns="http://www.w3.org/2000/svg" xmlns:xlink="http://www.w3.org/1999/xlink">
    <!-- Generator: Sketch 52.6 (67491) - http://www.bohemiancoding.com/sketch -->
    <title>Icon</title>
    <desc>Created with Sketch.</desc>
    <defs>
        <path d="M28.5665714,7.17771429 L28.5708571,14.2848571 C28.5722857,15.0734286 27.9322857,15.7148571 27.1437143,15.7148571 L27.1422857,15.7148571 C26.3537143,15.7148571 25.7151429,15.0748571 25.7137143,14.2877143 L25.7108571,10.5948571 L21.0094286,15.2962857 C20.7308571,15.5748571 20.3651429,15.7148571 19.9994286,15.7148571 C19.6351429,15.7148571 19.2694286,15.5748571 18.9894286,15.2962857 C18.4322857,14.7377143 18.4322857,13.8334286 18.9894286,13.2762857 L23.6751429,8.59057143 L19.9937143,8.572 C19.2037143,8.56771429 18.5665714,7.92342857 18.5708571,7.13628571 C18.5751429,6.34914286 19.2151429,5.71485714 19.9994286,5.71485714 L20.0065714,5.71485714 L27.1451429,5.75057143 C27.9308571,5.75485714 28.5665714,6.392 28.5665714,7.17771429 Z M15.2957143,18.99 C15.8542857,19.5485714 15.8542857,20.4514286 15.2957143,21.01 L10.5928571,25.7128571 L14.2857143,25.7142857 C15.0757143,25.7142857 15.7142857,26.3542857 15.7142857,27.1442857 C15.7128571,27.9328571 15.0742857,28.5714286 14.2857143,28.5714286 L14.2842857,28.5714286 L7.17714286,28.5671429 C6.39142857,28.5671429 5.75428571,27.9314286 5.75,27.1457143 L5.71428571,20.0071429 C5.71,19.2185714 6.34714286,18.5757143 7.13571429,18.5714286 L7.14285714,18.5714286 C7.92857143,18.5714286 8.56714286,19.2057143 8.57142857,19.9928571 L8.59,23.6757143 L13.2757143,18.99 C13.8342857,18.4314286 14.7371429,18.4314286 15.2957143,18.99 Z" id="path-1"></path>
    </defs>
    <g id="Interface" stroke="none" stroke-width="1" fill="none" fill-rule="evenodd">
        <g id="Desktop-v.-2.0-Copy" transform="translate(-267.000000, -1409.000000)">
            <g id="Features" transform="translate(267.000000, 1249.000000)">
                <g id="Rectangel-Icon" transform="translate(0.000000, 160.000000)">
                    <g>
                        <rect id="Background" fill="#3B3B3B" x="0" y="0" width="48" height="48" rx="8.57142857"></rect>
                        <g id="Icon/Fill/expand" transform="translate(6.857143, 6.857143)">
                            <mask id="mask-2" fill="white">
                                <use xlink:href="#path-1"></use>
                            </mask>
                            <use id="Color" fill="#FFFFFF" fill-rule="evenodd" xlink:href="#path-1"></use>
                        </g>
                    </g>
                </g>
            </g>
        </g>
    </g>
</svg>