<?xml version="1.0" encoding="UTF-8"?>
<svg width="48px" height="48px" viewBox="0 0 48 48" version="1.1" xmlns="http://www.w3.org/2000/svg" xmlns:xlink="http://www.w3.org/1999/xlink">
    <!-- Generator: Sketch 52.6 (67491) - http://www.bohemiancoding.com/sketch -->
    <title>Icon</title>
    <desc>Created with Sketch.</desc>
    <defs>
        <path d="M30.9451429,14.82 C30.9194286,14.8828571 30.908,14.9528571 30.8737143,15.01 C30.8194286,15.1 30.7437143,15.1714286 30.6737143,15.2485714 C30.6322857,15.2914286 30.6022857,15.3442857 30.5565714,15.3828571 C30.4708571,15.4528571 30.3708571,15.5 30.2722857,15.5485714 C30.2251429,15.5714286 30.1837143,15.6085714 30.1337143,15.6257143 C29.9794286,15.6828571 29.8151429,15.7142857 29.6451429,15.7142857 C29.568,15.7142857 29.488,15.7085714 29.4094286,15.6942857 L23.338,14.6871429 C22.5594286,14.5585714 22.0337143,13.8228571 22.1622857,13.0442857 C22.2908571,12.2671429 23.0251429,11.7342857 23.8051429,11.87 L26.1537143,12.2585714 C24.3751429,9.13571429 20.9794286,7.14285714 17.2422857,7.14285714 C13.0151429,7.14285714 9.29085714,9.59714286 7.75228571,13.3928571 C7.528,13.95 6.99228571,14.2857143 6.428,14.2857143 C6.24942857,14.2857143 6.068,14.2528571 5.89228571,14.1814286 C5.16085714,13.8857143 4.808,13.0528571 5.10514286,12.3214286 C7.08228571,7.44 11.8465714,4.28571429 17.2422857,4.28571429 C22.1165714,4.28571429 26.5465714,6.95714286 28.7822857,11.1257143 L29.3094286,8.30714286 C29.4551429,7.53285714 30.2037143,7.02 30.9765714,7.16857143 C31.7522857,7.31285714 32.2637143,8.06 32.118,8.83571429 L31.048,14.55 C31.0294286,14.6485714 30.9822857,14.7314286 30.9451429,14.82 Z M28.3935714,20.1045714 C29.125,20.4002857 29.4778571,21.2331429 29.1807143,21.9645714 C27.2035714,26.846 22.4392857,30.0002857 17.0435714,30.0002857 C12.1692857,30.0002857 7.73928571,27.3288571 5.50357143,23.1602857 L4.975,25.9774286 C4.84785714,26.6645714 4.24785714,27.1431429 3.57214286,27.1431429 C3.485,27.1431429 3.39642857,27.1345714 3.30785714,27.1174286 C2.53214286,26.9731429 2.02214286,26.226 2.16785714,25.4502857 L3.23785714,19.736 C3.255,19.6474286 3.305,19.5745714 3.33642857,19.4917143 C3.37214286,19.4017143 3.39357143,19.3017143 3.44642857,19.2217143 C3.48071429,19.1688571 3.53214286,19.1331429 3.57357143,19.086 C3.655,18.9917143 3.73071429,18.8931429 3.83214286,18.8245714 C3.84785714,18.8131429 3.86928571,18.8102857 3.885,18.8002857 C4.02357143,18.7102857 4.17214286,18.6402857 4.33642857,18.6045714 C4.355,18.6002857 4.375,18.606 4.39357143,18.6031429 C4.55071429,18.5774286 4.70928571,18.5617143 4.87642857,18.5902857 L10.9478571,19.5988571 C11.7264286,19.726 12.2521429,20.4631429 12.1235714,21.2417143 C12.0078571,21.9402857 11.4021429,22.436 10.715,22.436 C10.6378571,22.436 10.5592857,22.4302857 10.4807143,22.416 L8.13214286,22.0274286 C9.91071429,25.1502857 13.3064286,27.1431429 17.0435714,27.1431429 C21.2707143,27.1431429 24.995,24.6888571 26.5335714,20.8931429 C26.8292857,20.1602857 27.6635714,19.8088571 28.3935714,20.1045714 Z" id="path-1"></path>
    </defs>
    <g id="Interface" stroke="none" stroke-width="1" fill="none" fill-rule="evenodd">
        <g id="Desktop-v.-2.0-Copy" transform="translate(-267.000000, -1249.000000)">
            <g id="Features" transform="translate(267.000000, 1249.000000)">
                <g id="Feature-1">
                    <g id="Rectangel-Icon">
                        <g>
                            <rect id="Background" fill="#3B3B3B" x="0" y="0" width="48" height="48" rx="8.57142857"></rect>
                            <g id="Icon/Fill/Sync" transform="translate(6.857143, 6.857143)">
                                <mask id="mask-2" fill="white">
                                    <use xlink:href="#path-1"></use>
                                </mask>
                                <use id="Color" fill="#FFFFFF" fill-rule="evenodd" xlink:href="#path-1"></use>
                            </g>
                        </g>
                    </g>
                </g>
            </g>
        </g>
    </g>
</svg>