<?xml version="1.0" encoding="UTF-8"?>
<svg width="56px" height="56px" viewBox="0 0 56 56" version="1.1" xmlns="http://www.w3.org/2000/svg" xmlns:xlink="http://www.w3.org/1999/xlink">
    <!-- Generator: Sketch 52.6 (67491) - http://www.bohemiancoding.com/sketch -->
    <title>Icon</title>
    <desc>Created with Sketch.</desc>
    <defs>
        <linearGradient x1="95.0334056%" y1="50%" x2="4.3641915%" y2="50%" id="linearGradient-1">
            <stop stop-color="#267FFC" offset="0%"></stop>
            <stop stop-color="#0D62F8" offset="100%"></stop>
        </linearGradient>
        <path d="M36.1026667,17.29 C36.0726667,17.3633333 36.0593333,17.445 36.0193333,17.5116667 C35.956,17.6166667 35.8676667,17.7 35.786,17.79 C35.7376667,17.84 35.7026667,17.9016667 35.6493333,17.9466667 C35.5493333,18.0283333 35.4326667,18.0833333 35.3176667,18.14 C35.2626667,18.1666667 35.2143333,18.21 35.156,18.23 C34.976,18.2966667 34.7843333,18.3333333 34.586,18.3333333 C34.496,18.3333333 34.4026667,18.3266667 34.311,18.31 L27.2276667,17.135 C26.3193333,16.985 25.706,16.1266667 25.856,15.2183333 C26.006,14.3116667 26.8626667,13.69 27.7726667,13.8483333 L30.5126667,14.3016667 C28.4376667,10.6583333 24.476,8.33333333 20.116,8.33333333 C15.1843333,8.33333333 10.8393333,11.1966667 9.04433333,15.625 C8.78266667,16.275 8.15766667,16.6666667 7.49933333,16.6666667 C7.291,16.6666667 7.07933333,16.6283333 6.87433333,16.545 C6.021,16.2 5.60933333,15.2283333 5.956,14.375 C8.26266667,8.68 13.821,5 20.116,5 C25.8026667,5 30.971,8.11666667 33.5793333,12.98 L34.1943333,9.69166667 C34.3643333,8.78833333 35.2376667,8.19 36.1393333,8.36333333 C37.0443333,8.53166667 37.641,9.40333333 37.471,10.3083333 L36.2226667,16.975 C36.201,17.09 36.146,17.1866667 36.1026667,17.29 Z M33.1258333,23.4553333 C33.9791667,23.8003333 34.3908333,24.772 34.0441667,25.6253333 C31.7375,31.3203333 26.1791667,35.0003333 19.8841667,35.0003333 C14.1975,35.0003333 9.02916667,31.8836667 6.42083333,27.0203333 L5.80416667,30.307 C5.65583333,31.1086667 4.95583333,31.667 4.1675,31.667 C4.06583333,31.667 3.9625,31.657 3.85916667,31.637 C2.95416667,31.4686667 2.35916667,30.597 2.52916667,29.692 L3.7775,23.0253333 C3.7975,22.922 3.85583333,22.837 3.8925,22.7403333 C3.93416667,22.6353333 3.95916667,22.5186667 4.02083333,22.4253333 C4.06083333,22.3636667 4.12083333,22.322 4.16916667,22.267 C4.26416667,22.157 4.3525,22.042 4.47083333,21.962 C4.48916667,21.9486667 4.51416667,21.9453333 4.5325,21.9336667 C4.69416667,21.8286667 4.8675,21.747 5.05916667,21.7053333 C5.08083333,21.7003333 5.10416667,21.707 5.12583333,21.7036667 C5.30916667,21.6736667 5.49416667,21.6553333 5.68916667,21.6886667 L12.7725,22.8653333 C13.6808333,23.0136667 14.2941667,23.8736667 14.1441667,24.782 C14.0091667,25.597 13.3025,26.1753333 12.5008333,26.1753333 C12.4108333,26.1753333 12.3191667,26.1686667 12.2275,26.152 L9.4875,25.6986667 C11.5625,29.342 15.5241667,31.667 19.8841667,31.667 C24.8158333,31.667 29.1608333,28.8036667 30.9558333,24.3753333 C31.3008333,23.5203333 32.2741667,23.1103333 33.1258333,23.4553333 Z" id="path-2"></path>
    </defs>
    <g id="Interface" stroke="none" stroke-width="1" fill="none" fill-rule="evenodd">
        <g id="Desktop-v.-2.0-Copy" transform="translate(-267.000000, -2246.000000)">
            <g id="Section-C2" transform="translate(267.000000, 2199.000000)">
                <g id="Rectangel-Icon" transform="translate(0.000000, 47.000000)">
                    <g>
                        <rect id="Background" fill="url(#linearGradient-1)" x="0" y="0" width="56" height="56" rx="10"></rect>
                        <g id="Icon/Fill/Sync" transform="translate(8.000000, 8.000000)">
                            <mask id="mask-3" fill="white">
                                <use xlink:href="#path-2"></use>
                            </mask>
                            <use id="Color" fill="#FFFFFF" fill-rule="evenodd" xlink:href="#path-2"></use>
                        </g>
                    </g>
                </g>
            </g>
        </g>
    </g>
</svg>